<svg xmlns="http://www.w3.org/2000/svg" xmlns:xlink="http://www.w3.org/1999/xlink" width="1366" zoomAndPan="magnify" viewBox="0 0 1024.5 576" height="768" preserveAspectRatio="xMidYMid meet" version="1.0"><defs><clipPath id="19e433afa6"><path d="M 162.300781 519 L 865 519 L 865 537 L 162.300781 537 Z M 162.300781 519 " clip-rule="nonzero"/></clipPath><clipPath id="42635ef4e1"><path d="M 162.300781 559 L 865 559 L 865 575.859375 L 162.300781 575.859375 Z M 162.300781 559 " clip-rule="nonzero"/></clipPath><clipPath id="16ca7fc8f8"><path d="M 247 0.140625 L 507 0.140625 L 507 261 L 247 261 Z M 247 0.140625 " clip-rule="nonzero"/></clipPath></defs><g clip-path="url(#19e433afa6)"><path fill="#137ea7" d="M 856.6875 536.367188 L 170.664062 536.367188 C 166.546875 536.367188 162.433594 533.625 162.433594 528.140625 C 162.433594 524.027344 166.546875 519.910156 170.664062 519.910156 L 856.6875 519.910156 C 860.804688 519.910156 864.917969 524.027344 864.917969 528.140625 C 864.917969 533.625 860.804688 536.367188 856.6875 536.367188 Z M 856.6875 536.367188 " fill-opacity="1" fill-rule="evenodd"/></g><g clip-path="url(#42635ef4e1)"><path fill="#137ea7" d="M 856.6875 576.140625 L 170.664062 576.140625 C 166.546875 576.140625 162.433594 572.027344 162.433594 567.910156 C 162.433594 562.425781 166.546875 559.683594 170.664062 559.683594 L 856.6875 559.683594 C 860.804688 559.683594 864.917969 562.425781 864.917969 567.910156 C 864.917969 572.027344 860.804688 576.140625 856.6875 576.140625 Z M 856.6875 576.140625 " fill-opacity="1" fill-rule="evenodd"/></g><path fill="#137ea7" d="M 755.15625 227.796875 C 751.039062 227.796875 746.925781 225.054688 746.925781 222.3125 C 738.691406 189.398438 713.996094 160.597656 689.296875 155.113281 C 674.207031 152.367188 660.484375 157.855469 649.507812 172.941406 C 646.765625 175.683594 642.648438 177.054688 639.90625 175.683594 C 635.789062 174.3125 634.417969 171.570312 634.417969 168.828125 L 634.417969 160.597656 C 623.441406 170.199219 609.71875 188.027344 611.089844 219.570312 C 611.089844 223.683594 608.347656 227.796875 602.859375 227.796875 C 598.742188 227.796875 594.625 225.054688 594.625 219.570312 C 594.625 212.710938 594.625 205.855469 596 200.367188 L 598.742188 149.625 L 591.882812 149.625 C 587.765625 149.625 585.023438 148.253906 583.652344 145.511719 C 582.277344 142.769531 582.277344 140.027344 583.652344 137.285156 C 597.371094 113.96875 615.207031 100.253906 635.789062 94.769531 C 661.855469 89.285156 685.183594 100.253906 693.414062 105.742188 C 701.644531 104.367188 720.855469 100.253906 737.320312 111.226562 C 751.039062 119.453125 759.273438 134.539062 762.015625 155.113281 L 763.386719 219.570312 C 763.386719 223.683594 760.644531 226.425781 756.527344 227.796875 C 755.15625 227.796875 755.15625 227.796875 755.15625 227.796875 Z M 755.15625 227.796875 " fill-opacity="1" fill-rule="evenodd"/><path fill="#137ea7" d="M 679.695312 337.511719 C 644.019531 337.511719 611.089844 312.828125 600.113281 278.539062 L 597.371094 278.539062 C 593.253906 278.539062 589.136719 275.796875 589.136719 270.3125 L 589.136719 241.511719 C 589.136719 237.398438 591.882812 234.65625 596 233.285156 L 596 223.683594 C 596 219.570312 598.742188 216.828125 602.859375 215.453125 C 605.601562 190.769531 619.324219 107.113281 657.742188 131.796875 C 686.554688 149.625 705.761719 149.625 718.109375 149.625 C 723.597656 149.625 727.714844 149.625 730.460938 152.367188 C 733.203125 156.484375 738.691406 164.710938 741.4375 168.828125 C 742.808594 171.570312 742.808594 172.941406 744.179688 172.941406 C 744.179688 174.3125 751.039062 203.113281 753.785156 216.828125 C 753.785156 215.453125 755.15625 215.453125 756.527344 215.453125 C 760.644531 215.453125 764.761719 219.570312 764.761719 223.683594 L 764.761719 233.285156 C 768.875 234.65625 771.621094 237.398438 771.621094 241.511719 L 771.621094 270.3125 C 771.621094 275.796875 767.503906 278.539062 763.386719 278.539062 L 760.644531 278.539062 C 749.667969 312.828125 716.738281 337.511719 679.695312 337.511719 Z M 679.695312 337.511719 " fill-opacity="1" fill-rule="evenodd"/><path fill="#137ea7" d="M 808.664062 536.367188 L 545.234375 536.367188 C 535.628906 536.367188 526.023438 528.140625 526.023438 518.539062 L 526.023438 441.742188 C 526.023438 389.625 569.929688 347.113281 622.066406 347.113281 L 670.089844 465.054688 C 670.089844 469.167969 674.207031 470.539062 676.949219 470.539062 C 681.066406 470.539062 683.808594 469.167969 685.183594 466.425781 L 735.949219 347.113281 C 786.714844 348.484375 827.875 390.996094 827.875 441.742188 L 827.875 518.539062 C 827.875 528.140625 819.640625 536.367188 808.664062 536.367188 Z M 639.90625 347.113281 L 718.109375 347.113281 L 676.949219 441.742188 Z M 639.90625 347.113281 " fill-opacity="1" fill-rule="evenodd"/><path fill="#137ea7" d="M 762.015625 536.367188 C 757.898438 536.367188 753.785156 533.625 753.785156 528.140625 L 753.785156 455.453125 C 753.785156 451.339844 757.898438 447.226562 762.015625 447.226562 C 767.503906 447.226562 770.25 451.339844 770.25 455.453125 L 770.25 528.140625 C 770.25 533.625 767.503906 536.367188 762.015625 536.367188 Z M 591.882812 536.367188 C 587.765625 536.367188 583.652344 533.625 583.652344 528.140625 L 583.652344 455.453125 C 583.652344 451.339844 587.765625 447.226562 591.882812 447.226562 C 596 447.226562 600.113281 451.339844 600.113281 455.453125 L 600.113281 528.140625 C 600.113281 533.625 596 536.367188 591.882812 536.367188 Z M 591.882812 536.367188 " fill-opacity="1" fill-rule="evenodd"/><path fill="#137ea7" d="M 467.027344 480.140625 L 206.335938 480.140625 C 198.105469 480.140625 191.246094 473.285156 191.246094 465.054688 L 191.246094 288.140625 C 191.246094 279.910156 198.105469 273.054688 206.335938 273.054688 L 467.027344 273.054688 C 475.257812 273.054688 482.117188 279.910156 482.117188 288.140625 L 482.117188 465.054688 C 482.117188 473.285156 475.257812 480.140625 467.027344 480.140625 Z M 465.65625 444.484375 L 207.710938 444.484375 L 207.710938 289.511719 L 465.65625 289.511719 Z M 313.355469 463.683594 L 360.007812 463.683594 Z M 313.355469 463.683594 " fill-opacity="1" fill-rule="evenodd"/><path fill="#137ea7" d="M 360.007812 513.054688 L 313.355469 513.054688 C 309.242188 513.054688 305.125 508.941406 305.125 504.828125 L 305.125 471.910156 C 305.125 467.796875 309.242188 463.683594 313.355469 463.683594 L 360.007812 463.683594 C 364.121094 463.683594 368.238281 467.796875 368.238281 471.910156 L 368.238281 504.828125 C 368.238281 508.941406 364.121094 513.054688 360.007812 513.054688 Z M 360.007812 513.054688 " fill-opacity="1" fill-rule="evenodd"/><path fill="#137ea7" d="M 398.425781 532.253906 L 274.941406 532.253906 C 270.824219 532.253906 266.707031 529.511719 266.707031 524.027344 L 266.707031 513.054688 C 266.707031 502.082031 276.3125 492.484375 287.289062 492.484375 L 386.074219 492.484375 C 398.425781 492.484375 406.65625 502.082031 406.65625 513.054688 L 406.65625 524.027344 C 406.65625 529.511719 402.539062 532.253906 398.425781 532.253906 Z M 398.425781 532.253906 " fill-opacity="1" fill-rule="evenodd"/><g clip-path="url(#16ca7fc8f8)"><path fill="#137ea7" d="M 386.074219 260.710938 L 368.238281 260.710938 C 361.378906 260.710938 354.519531 255.226562 354.519531 246.996094 L 353.148438 225.054688 C 343.542969 223.683594 335.308594 219.570312 328.449219 215.453125 L 310.613281 229.167969 C 307.867188 231.910156 305.125 233.285156 301.007812 233.285156 C 298.265625 233.285156 294.148438 231.910156 291.40625 229.167969 L 279.054688 216.828125 C 273.566406 211.339844 273.566406 203.113281 279.054688 196.253906 L 292.777344 179.796875 C 288.660156 172.941406 284.542969 163.339844 283.171875 155.113281 L 261.21875 153.742188 C 252.988281 152.367188 247.5 146.882812 247.5 140.027344 L 247.5 122.199219 C 247.5 113.96875 252.988281 108.484375 261.21875 107.113281 L 283.171875 105.742188 C 284.542969 97.511719 288.660156 89.285156 292.777344 81.054688 L 279.054688 64.597656 C 273.566406 59.113281 273.566406 50.882812 279.054688 45.398438 L 291.40625 33.054688 C 294.148438 30.3125 298.265625 28.941406 301.007812 28.941406 C 305.125 28.941406 307.867188 30.3125 310.613281 31.683594 L 328.449219 46.769531 C 335.308594 41.285156 343.542969 38.539062 353.148438 35.796875 L 354.519531 13.855469 C 354.519531 6.996094 361.378906 0.140625 368.238281 0.140625 L 386.074219 0.140625 C 392.9375 0.140625 399.796875 6.996094 399.796875 13.855469 L 402.539062 35.796875 C 410.773438 38.539062 419.003906 41.285156 427.238281 46.769531 L 443.703125 31.683594 C 446.445312 30.3125 449.191406 28.941406 453.304688 28.941406 C 457.421875 28.941406 460.167969 30.3125 462.910156 33.054688 L 475.257812 45.398438 C 480.746094 50.882812 480.746094 59.113281 475.257812 64.597656 L 461.539062 81.054688 C 467.027344 89.285156 469.769531 97.511719 472.515625 105.742188 L 493.09375 107.113281 C 501.328125 108.484375 506.816406 113.96875 506.816406 122.199219 L 506.816406 140.027344 C 506.816406 146.882812 501.328125 152.367188 493.09375 153.742188 L 472.515625 155.113281 C 469.769531 163.339844 467.027344 172.941406 461.539062 179.796875 L 475.257812 196.253906 C 480.746094 203.113281 480.746094 211.339844 475.257812 216.828125 L 462.910156 229.167969 C 460.167969 231.910156 457.421875 233.285156 453.304688 233.285156 C 449.191406 233.285156 446.445312 231.910156 443.703125 229.167969 L 427.238281 215.453125 C 419.003906 219.570312 410.773438 223.683594 402.539062 225.054688 L 399.796875 246.996094 C 399.796875 255.226562 392.9375 260.710938 386.074219 260.710938 Z M 377.84375 201.742188 C 338.054688 201.742188 306.496094 170.199219 306.496094 130.425781 C 306.496094 92.027344 338.054688 59.113281 377.84375 59.113281 C 416.261719 59.113281 447.816406 92.027344 447.816406 130.425781 C 447.816406 170.199219 416.261719 201.742188 377.84375 201.742188 Z M 377.84375 201.742188 " fill-opacity="1" fill-rule="evenodd"/></g><path fill="#137ea7" d="M 392.9375 336.140625 L 280.429688 336.140625 C 276.3125 336.140625 272.195312 333.398438 272.195312 327.910156 C 272.195312 323.796875 276.3125 319.683594 280.429688 319.683594 L 392.9375 319.683594 C 397.050781 319.683594 401.167969 323.796875 401.167969 327.910156 C 401.167969 333.398438 397.050781 336.140625 392.9375 336.140625 Z M 392.9375 336.140625 " fill-opacity="1" fill-rule="evenodd"/><path fill="#137ea7" d="M 392.9375 367.683594 L 280.429688 367.683594 C 276.3125 367.683594 272.195312 363.570312 272.195312 359.453125 C 272.195312 353.96875 276.3125 351.226562 280.429688 351.226562 L 392.9375 351.226562 C 397.050781 351.226562 401.167969 353.96875 401.167969 359.453125 C 401.167969 363.570312 397.050781 367.683594 392.9375 367.683594 Z M 392.9375 367.683594 " fill-opacity="1" fill-rule="evenodd"/><path fill="#137ea7" d="M 392.9375 397.855469 L 280.429688 397.855469 C 276.3125 397.855469 272.195312 393.742188 272.195312 389.625 C 272.195312 385.511719 276.3125 381.398438 280.429688 381.398438 L 392.9375 381.398438 C 397.050781 381.398438 401.167969 385.511719 401.167969 389.625 C 401.167969 393.742188 397.050781 397.855469 392.9375 397.855469 Z M 392.9375 397.855469 " fill-opacity="1" fill-rule="evenodd"/></svg>