<svg xmlns="http://www.w3.org/2000/svg" xmlns:xlink="http://www.w3.org/1999/xlink" width="1366" zoomAndPan="magnify" viewBox="0 0 1024.5 576" height="768" preserveAspectRatio="xMidYMid meet" version="1.0"><defs><clipPath id="2ac51841b7"><path d="M 534 31.097656 L 642 31.097656 L 642 525.347656 L 534 525.347656 Z M 534 31.097656 " clip-rule="nonzero"/></clipPath></defs><g clip-path="url(#2ac51841b7)"><path fill="#137ea7" d="M 641.816406 39.019531 L 636.640625 31.097656 L 534.832031 97.628906 L 540.007812 105.550781 L 615.789062 56.027344 L 615.789062 511.664062 L 636.640625 525.289062 L 641.816406 517.367188 L 625.25 506.542969 L 625.25 49.84375 Z M 641.816406 39.019531 " fill-opacity="1" fill-rule="nonzero"/></g><path fill="#137ea7" d="M 541.132812 466.742188 L 609.355469 511.328125 L 609.355469 66.042969 L 541.132812 110.628906 Z M 586.632812 286.421875 L 597.195312 279.519531 L 597.195312 346.40625 L 586.632812 339.5 Z M 586.632812 286.421875 " fill-opacity="1" fill-rule="nonzero"/><path fill="#137ea7" d="M 414.550781 414.941406 L 376.710938 464.746094 C 370.828125 472.488281 372.335938 483.535156 380.078125 489.417969 C 383.261719 491.835938 387.003906 493.003906 390.71875 493.003906 C 396.03125 493.003906 401.285156 490.605469 404.75 486.046875 L 446.441406 431.175781 C 448.933594 427.898438 450.195312 423.851562 450.015625 419.742188 L 449.1875 401.125 L 412.191406 361.769531 Z M 414.550781 414.941406 " fill-opacity="1" fill-rule="nonzero"/><path fill="#137ea7" d="M 371.9375 342.132812 C 372.574219 342.242188 373.210938 342.292969 373.839844 342.292969 C 379.230469 342.292969 384 338.410156 384.933594 332.910156 C 388.699219 310.742188 396.0625 295.035156 404.207031 283.945312 C 400.585938 301.015625 400.34375 316.617188 402.882812 338.433594 C 404.21875 345.3125 406.585938 350.308594 409.585938 353.941406 C 410.089844 354.671875 410.632812 355.386719 411.261719 356.054688 L 461.230469 409.203125 L 475.261719 478.929688 C 476.945312 487.289062 484.292969 493.066406 492.503906 493.0625 C 493.65625 493.0625 494.824219 492.949219 495.996094 492.714844 C 505.53125 490.796875 511.699219 481.511719 509.78125 471.980469 L 494.757812 397.328125 C 494.109375 394.109375 492.574219 391.136719 490.328125 388.742188 L 453.3125 349.371094 C 453.429688 347.269531 453.410156 344.859375 453.242188 342.070312 C 452.328125 335.234375 452.234375 328.074219 452.632812 320.878906 L 448.0625 318.578125 C 444.71875 316.898438 442.183594 314.03125 440.925781 310.507812 L 426.332031 269.726562 C 423.636719 262.191406 427.570312 253.871094 435.105469 251.175781 C 436.683594 250.613281 438.328125 250.324219 439.992188 250.324219 C 446.101562 250.324219 451.589844 254.195312 453.652344 259.949219 L 459.445312 276.140625 C 459.882812 273.976562 460.3125 271.867188 460.703125 269.863281 C 464.742188 255.851562 459.457031 239.070312 447.433594 236.074219 C 444.320312 235.296875 440.847656 235.164062 437.28125 235.746094 C 436.710938 235.765625 436.136719 235.8125 435.558594 235.921875 C 433.15625 236.371094 376.511719 247.929688 362.714844 329.136719 C 361.671875 335.273438 365.800781 341.089844 371.9375 342.132812 Z M 371.9375 342.132812 " fill-opacity="1" fill-rule="nonzero"/><path fill="#137ea7" d="M 450.601562 261.042969 C 448.503906 255.183594 442.054688 252.128906 436.191406 254.230469 C 430.332031 256.324219 427.285156 262.773438 429.378906 268.636719 L 443.972656 309.414062 C 444.949219 312.140625 446.933594 314.386719 449.519531 315.683594 L 497.789062 339.972656 C 499.414062 340.792969 501.140625 341.179688 502.84375 341.179688 C 506.96875 341.179688 510.9375 338.90625 512.917969 334.972656 C 515.714844 329.414062 513.476562 322.640625 507.917969 319.84375 L 463.675781 297.578125 Z M 450.601562 261.042969 " fill-opacity="1" fill-rule="nonzero"/><path fill="#137ea7" d="M 502.734375 202.371094 C 502.734375 203.410156 502.683594 204.445312 502.582031 205.480469 C 502.480469 206.511719 502.328125 207.539062 502.125 208.554688 C 501.925781 209.574219 501.671875 210.578125 501.371094 211.570312 C 501.070312 212.566406 500.71875 213.542969 500.324219 214.5 C 499.925781 215.460938 499.484375 216.394531 498.992188 217.3125 C 498.503906 218.226562 497.972656 219.117188 497.394531 219.980469 C 496.816406 220.84375 496.199219 221.675781 495.542969 222.476562 C 494.882812 223.28125 494.1875 224.046875 493.453125 224.78125 C 492.71875 225.515625 491.949219 226.210938 491.148438 226.871094 C 490.347656 227.527344 489.511719 228.144531 488.648438 228.722656 C 487.789062 229.300781 486.898438 229.832031 485.984375 230.320312 C 485.066406 230.8125 484.128906 231.253906 483.171875 231.652344 C 482.210938 232.050781 481.234375 232.398438 480.242188 232.699219 C 479.25 233 478.242188 233.253906 477.226562 233.457031 C 476.207031 233.65625 475.183594 233.808594 474.148438 233.910156 C 473.117188 234.011719 472.082031 234.0625 471.042969 234.0625 C 470.003906 234.0625 468.96875 234.011719 467.9375 233.910156 C 466.902344 233.808594 465.878906 233.65625 464.859375 233.457031 C 463.839844 233.253906 462.835938 233 461.84375 232.699219 C 460.847656 232.398438 459.875 232.050781 458.914062 231.652344 C 457.957031 231.253906 457.019531 230.8125 456.101562 230.320312 C 455.1875 229.832031 454.296875 229.300781 453.433594 228.722656 C 452.570312 228.144531 451.738281 227.527344 450.9375 226.871094 C 450.132812 226.210938 449.367188 225.515625 448.632812 224.78125 C 447.898438 224.046875 447.203125 223.28125 446.542969 222.476562 C 445.886719 221.675781 445.265625 220.84375 444.691406 219.980469 C 444.113281 219.117188 443.582031 218.226562 443.09375 217.3125 C 442.601562 216.394531 442.160156 215.460938 441.761719 214.5 C 441.363281 213.542969 441.015625 212.566406 440.714844 211.570312 C 440.414062 210.578125 440.160156 209.574219 439.957031 208.554688 C 439.757812 207.539062 439.605469 206.511719 439.503906 205.480469 C 439.402344 204.445312 439.347656 203.410156 439.347656 202.371094 C 439.347656 201.335938 439.402344 200.300781 439.503906 199.265625 C 439.605469 198.234375 439.757812 197.207031 439.957031 196.191406 C 440.160156 195.171875 440.414062 194.167969 440.714844 193.171875 C 441.015625 192.179688 441.363281 191.203125 441.761719 190.246094 C 442.160156 189.285156 442.601562 188.347656 443.09375 187.433594 C 443.582031 186.519531 444.113281 185.628906 444.691406 184.765625 C 445.265625 183.902344 445.886719 183.070312 446.542969 182.265625 C 447.203125 181.464844 447.898438 180.695312 448.632812 179.964844 C 449.367188 179.230469 450.132812 178.53125 450.9375 177.875 C 451.738281 177.214844 452.570312 176.597656 453.433594 176.023438 C 454.296875 175.445312 455.1875 174.914062 456.101562 174.421875 C 457.019531 173.933594 457.957031 173.492188 458.914062 173.09375 C 459.875 172.695312 460.847656 172.347656 461.84375 172.046875 C 462.835938 171.742188 463.839844 171.492188 464.859375 171.289062 C 465.878906 171.085938 466.902344 170.933594 467.9375 170.832031 C 468.96875 170.730469 470.003906 170.679688 471.042969 170.679688 C 472.082031 170.679688 473.117188 170.730469 474.148438 170.832031 C 475.183594 170.933594 476.207031 171.085938 477.226562 171.289062 C 478.242188 171.492188 479.25 171.742188 480.242188 172.046875 C 481.234375 172.347656 482.210938 172.695312 483.171875 173.09375 C 484.128906 173.492188 485.066406 173.933594 485.984375 174.421875 C 486.898438 174.914062 487.789062 175.445312 488.648438 176.023438 C 489.511719 176.597656 490.347656 177.214844 491.148438 177.875 C 491.949219 178.53125 492.71875 179.230469 493.453125 179.964844 C 494.1875 180.695312 494.882812 181.464844 495.542969 182.265625 C 496.199219 183.070312 496.816406 183.902344 497.394531 184.765625 C 497.972656 185.628906 498.503906 186.519531 498.992188 187.433594 C 499.484375 188.347656 499.925781 189.285156 500.324219 190.246094 C 500.71875 191.203125 501.070312 192.179688 501.371094 193.171875 C 501.671875 194.167969 501.925781 195.171875 502.125 196.191406 C 502.328125 197.207031 502.480469 198.234375 502.582031 199.265625 C 502.683594 200.300781 502.734375 201.335938 502.734375 202.371094 Z M 502.734375 202.371094 " fill-opacity="1" fill-rule="nonzero"/></svg>